<svg version="1.1" id="Layer_1" xmlns="http://www.w3.org/2000/svg" xmlns:xlink="http://www.w3.org/1999/xlink" x="0px" y="0px"
	 width="100%" viewBox="0 0 1444 1466" enable-background="new 0 0 1444 1466" xml:space="preserve">
<path fill="#FFFFFF" opacity="1.000000" stroke="none" 
	d="
M796.000000,1467.000000 
	C530.666687,1467.000000 265.833435,1467.000000 1.000107,1467.000000 
	C1.000071,978.333496 1.000071,489.666931 1.000036,1.000303 
	C482.333130,1.000202 963.666260,1.000202 1444.999512,1.000101 
	C1444.999756,489.666351 1444.999756,978.332703 1444.999878,1466.999512 
	C1228.833374,1467.000000 1012.666687,1467.000000 796.000000,1467.000000 
M1294.481445,889.840271 
	C1297.311646,889.840210 1300.142212,889.863342 1302.972168,889.835754 
	C1311.619629,889.751526 1313.984375,887.426575 1313.993408,878.878540 
	C1314.014282,858.879883 1314.002686,838.881287 1313.998779,818.882629 
	C1313.996704,808.380859 1312.442383,806.844482 1301.784180,806.843689 
	C1253.120850,806.840027 1204.457397,806.847290 1155.794067,806.837402 
	C1146.932983,806.835632 1145.001831,804.863892 1145.001465,795.927429 
	C1144.998657,732.765015 1144.999756,669.602600 1145.002075,606.440186 
	C1145.002075,605.107300 1144.904541,603.758057 1145.072632,602.444641 
	C1145.596558,598.350037 1148.870239,596.454590 1152.610840,598.098206 
	C1154.435303,598.899841 1156.177856,599.896118 1157.928711,600.856567 
	C1202.654175,625.390686 1250.609253,637.325623 1301.533569,637.773621 
	C1311.693237,637.862976 1313.979248,635.812866 1313.992188,625.707581 
	C1314.018555,605.208984 1314.002686,584.710327 1313.998779,564.211731 
	C1313.996826,553.673828 1312.402588,551.943359 1301.840942,552.001282 
	C1277.692627,552.133667 1253.941772,549.262390 1230.955811,541.790466 
	C1204.949707,533.336670 1181.728638,520.260193 1165.350586,497.585999 
	C1142.045044,465.321259 1140.310303,429.420074 1148.802246,392.082489 
	C1149.947632,387.046295 1152.289795,386.398407 1156.902588,389.171173 
	C1164.749634,393.887878 1172.423218,398.902679 1180.370361,403.441132 
	C1218.484131,425.207672 1259.654907,435.801086 1303.419800,436.741211 
	C1309.600830,436.873993 1313.910156,433.229218 1313.942017,427.245209 
	C1314.054443,406.081177 1313.968872,384.915985 1313.929688,363.751312 
	C1313.921265,359.218933 1311.658813,356.131165 1307.400879,354.740265 
	C1304.894531,353.921539 1302.265747,353.307800 1299.646606,353.030121 
	C1273.265869,350.233673 1247.918091,343.936493 1224.257324,331.541443 
	C1194.552612,315.980133 1173.674316,292.481140 1160.796265,261.673676 
	C1150.108154,236.104889 1146.420532,209.158493 1145.041260,181.754700 
	C1144.608887,173.167801 1142.286377,170.879608 1133.669067,170.859848 
	C1113.170532,170.812836 1092.671753,170.810104 1072.173218,170.858521 
	C1063.427368,170.879181 1061.576660,172.673538 1060.683960,181.548325 
	C1060.450684,183.868256 1060.206299,186.190857 1060.091675,188.518372 
	C1058.843628,213.833969 1054.103882,238.396057 1044.081909,261.779083 
	C1030.998535,292.305298 1009.629211,315.285400 980.433655,330.996399 
	C956.768982,343.731018 931.211060,350.068268 904.694458,353.054932 
	C893.909851,354.269592 891.876709,356.437134 891.854126,367.269775 
	C891.813416,386.768372 891.824341,406.267151 891.850952,425.765808 
	C891.863037,434.625580 894.799927,437.277100 903.788208,436.665039 
	C911.926880,436.110870 920.083252,435.730255 928.198364,434.932983 
	C954.421997,432.356598 979.837463,426.186096 1003.416321,414.428223 
	C1019.154663,406.580109 1033.917725,396.772705 1049.093506,387.802155 
	C1053.927734,384.944611 1055.545898,385.499481 1056.650513,390.804749 
	C1059.612427,405.028198 1061.585693,419.352600 1060.703247,433.938934 
	C1058.867432,464.286407 1047.220703,489.939606 1024.266968,510.212372 
	C1003.062683,528.940002 977.945435,539.739014 950.540039,544.788025 
	C933.918518,547.850220 916.875488,548.677002 900.000610,550.286011 
	C892.841858,550.968628 890.628296,552.214661 890.580017,558.507080 
	C890.408691,580.834717 890.395935,603.166931 890.682617,625.492737 
	C890.777222,632.861328 893.338196,634.946472 900.618530,634.962524 
	C927.907593,635.022705 954.728027,631.372559 981.088196,624.379150 
	C1005.339111,617.945312 1028.437012,608.632935 1050.417480,596.502869 
	C1057.688354,592.490356 1059.144653,593.411072 1059.146973,601.373413 
	C1059.165649,665.702393 1059.165771,730.031433 1059.149780,794.360413 
	C1059.147949,801.678589 1057.180908,803.817627 1050.145264,803.820618 
	C972.317139,803.853699 894.489075,803.853333 816.660950,803.821533 
	C809.552612,803.818665 807.758057,801.948242 807.574951,794.996704 
	C807.539856,793.664368 807.568298,792.330322 807.568298,790.997070 
	C807.568176,684.170959 807.509277,577.344727 807.637512,470.518768 
	C807.654907,456.050140 802.521545,444.626526 791.498230,435.124725 
	C719.175964,372.785339 647.106934,310.151978 574.770508,247.829086 
	C555.719971,231.415695 536.661560,214.885300 516.445374,199.984299 
	C493.708282,183.225113 468.306732,179.893921 441.712616,191.085373 
	C427.434570,197.093948 414.858459,205.827621 403.200958,215.846756 
	C317.780396,289.262360 232.504807,362.847015 146.967941,436.126740 
	C136.471100,445.119446 131.903259,455.665436 131.916840,469.249329 
	C132.053070,605.406677 131.999527,741.564209 132.001175,877.721741 
	C132.001190,879.388062 131.975739,881.056335 132.045609,882.720215 
	C132.221039,886.897888 134.705444,889.064758 138.577545,889.684265 
	C140.531555,889.996887 142.566406,889.835754 144.564697,889.835754 
	C527.538879,889.840393 910.513123,889.840210 1294.481445,889.840271 
M580.363770,1028.895752 
	C571.058777,1033.665039 562.161438,1039.631714 552.367859,1042.966064 
	C528.552490,1051.074341 504.790588,1049.301392 482.902527,1036.786743 
	C467.623993,1028.051147 453.272491,1017.620239 438.885956,1007.412354 
	C393.077515,974.909302 343.129547,963.428101 287.839905,975.798035 
	C260.802063,981.847290 236.900482,993.984802 214.450134,1009.681152 
	C191.582260,1025.669312 168.065826,1040.399780 140.531326,1047.319946 
	C134.658295,1048.795898 132.072418,1052.630005 132.044830,1058.745239 
	C131.950104,1079.744507 131.944153,1100.744507 132.037994,1121.743774 
	C132.066101,1128.034424 137.029129,1132.377930 143.185364,1131.594604 
	C175.276459,1127.511230 205.612152,1118.234619 233.255722,1101.005737 
	C251.061630,1089.908203 268.756653,1078.617432 286.819702,1067.952515 
	C301.159393,1059.485962 316.695526,1053.695312 333.531281,1053.311279 
	C352.809174,1052.871460 369.547699,1060.379272 384.649475,1071.872925 
	C409.385712,1090.699341 435.094116,1107.753418 464.633301,1118.412964 
	C508.484161,1134.236938 551.967468,1133.752075 595.405396,1116.836060 
	C616.066284,1108.790039 634.189575,1096.321777 653.088501,1085.119019 
	C668.377258,1076.056274 683.964355,1067.245850 700.198608,1060.092651 
	C720.438721,1051.174194 741.485596,1051.036987 761.552612,1061.333984 
	C770.234802,1065.789185 778.420410,1071.426514 786.235046,1077.318115 
	C810.466675,1095.586792 836.179749,1111.032959 865.147705,1120.588257 
	C894.668640,1130.325684 924.783203,1132.753906 955.335999,1126.892456 
	C987.456726,1120.729980 1016.104858,1106.581665 1042.622437,1087.750610 
	C1052.529541,1080.715332 1062.330933,1073.454346 1072.718750,1067.188721 
	C1096.224731,1053.010498 1120.791260,1051.065796 1146.333984,1061.890137 
	C1163.186890,1069.032104 1178.506836,1078.704224 1193.207886,1089.368774 
	C1223.283691,1111.186401 1256.545898,1125.119263 1293.174927,1131.249023 
	C1306.708740,1133.513794 1313.949951,1127.777466 1313.987549,1113.994629 
	C1314.038452,1095.328369 1313.869385,1076.660522 1314.085449,1057.996582 
	C1314.145142,1052.835815 1312.022217,1050.503052 1307.196777,1049.404907 
	C1298.929077,1047.523560 1290.663940,1045.526245 1282.565674,1043.032104 
	C1271.665894,1039.675171 1261.691406,1034.484985 1252.821289,1027.116943 
	C1241.311157,1017.555908 1230.210938,1007.271912 1217.731567,999.146057 
	C1155.925049,958.901550 1091.919800,959.729187 1027.487671,991.930054 
	C1010.789185,1000.275330 996.204529,1012.763977 980.234375,1022.681885 
	C968.971741,1029.676392 957.553833,1037.001953 945.242065,1041.601318 
	C921.624756,1050.424194 898.340210,1047.664551 876.850159,1034.098633 
	C860.372559,1023.696960 844.251892,1012.731689 827.888062,1002.147705 
	C790.465942,977.943665 749.942993,965.844177 705.059204,970.960510 
	C674.134521,974.485596 645.221436,983.655212 619.443237,1001.550415 
	C606.580872,1010.479370 593.797424,1019.522156 580.363770,1028.895752 
M993.756042,1236.264526 
	C986.590698,1240.492310 979.621460,1245.104980 972.222839,1248.875000 
	C951.238098,1259.567993 929.003357,1264.384888 905.476562,1261.106079 
	C883.531067,1258.047607 864.184448,1248.716431 846.573792,1235.508911 
	C830.441284,1223.409912 814.191284,1211.507080 795.804688,1202.888062 
	C762.776672,1187.405762 728.682922,1183.551392 693.164307,1192.647705 
	C666.746216,1199.413330 643.096008,1212.342041 619.068909,1224.616821 
	C598.631165,1235.057861 578.221497,1245.823242 556.933411,1254.260010 
	C532.026794,1264.131104 506.209564,1264.521118 481.985870,1251.397339 
	C470.805634,1245.340210 460.639557,1237.257446 450.497253,1229.463745 
	C391.661072,1184.252075 327.547058,1176.449463 258.677490,1202.048218 
	C240.697998,1208.731079 225.398148,1220.197144 209.581818,1230.658447 
	C188.538467,1244.577026 167.134460,1257.677246 142.321686,1263.958008 
	C136.834061,1265.347046 133.681793,1268.845703 133.660095,1274.650513 
	C133.580383,1295.976318 133.346558,1317.305664 133.647324,1338.626953 
	C133.758316,1346.495850 140.537170,1351.134521 148.259323,1349.631714 
	C185.099258,1342.462280 219.687180,1329.647583 250.876297,1308.428711 
	C261.339447,1301.310303 271.355377,1293.492920 282.091492,1286.825806 
	C309.709839,1269.675049 338.541992,1266.225464 368.641174,1280.414551 
	C384.300751,1287.796631 397.947083,1298.149658 411.516602,1308.669556 
	C449.365295,1338.012207 491.720612,1352.855957 539.991272,1348.015625 
	C571.400635,1344.866089 601.084839,1336.236450 627.518677,1318.377197 
	C641.455139,1308.961426 654.937744,1298.871704 668.913391,1289.516602 
	C693.913940,1272.781494 720.961731,1267.238525 750.281433,1275.858398 
	C768.177002,1281.119385 783.344604,1291.374268 798.175781,1302.226196 
	C813.758179,1313.627808 828.790283,1326.010376 847.059814,1333.028931 
	C884.408569,1347.377319 922.870239,1349.641357 962.018188,1342.533813 
	C981.763611,1338.948853 1001.230835,1334.166382 1018.118958,1322.715576 
	C1030.100586,1314.591675 1041.557983,1305.685425 1053.135132,1296.976440 
	C1065.302612,1287.823364 1077.826294,1279.321899 1092.668457,1275.089478 
	C1115.567871,1268.559204 1137.766113,1272.558105 1159.913452,1279.377563 
	C1168.484009,1282.016724 1175.253540,1286.607300 1181.610840,1292.721191 
	C1199.316284,1309.748779 1219.722046,1322.718018 1242.428467,1332.188232 
	C1262.148804,1340.412842 1282.813110,1344.411011 1303.871948,1346.825684 
	C1309.599365,1347.482422 1313.949829,1343.258423 1313.970459,1337.081665 
	C1314.044922,1314.750610 1314.052612,1292.419067 1313.963135,1270.088135 
	C1313.936157,1263.344971 1311.747314,1260.516724 1304.993408,1259.829590 
	C1281.188965,1257.408203 1260.797241,1247.475708 1241.910889,1233.209473 
	C1223.283813,1219.139160 1203.500977,1206.832397 1181.926392,1197.554443 
	C1142.246582,1180.490479 1102.534546,1179.965942 1062.617554,1196.583374 
	C1038.177368,1206.757812 1015.841370,1220.570068 993.756042,1236.264526 
M748.267578,44.766590 
	C739.662598,50.921730 730.444946,56.384850 722.566162,63.360153 
	C697.695251,85.378967 683.861450,113.477058 681.350403,146.427856 
	C678.557922,183.072830 689.373108,215.568405 714.685059,242.782425 
	C737.971619,267.818726 766.833801,281.057434 800.813538,282.926697 
	C833.928528,284.748352 863.635132,274.952576 888.935486,253.713028 
	C912.912720,233.584198 927.238037,207.653275 932.371399,176.449875 
	C941.043640,123.735947 913.663818,68.480576 865.838318,44.475677 
	C826.986816,24.975069 787.910767,25.149384 748.267578,44.766590 
z"/>
<path fill="#37757E" opacity="1.000000" stroke="none" 
	d="
M1293.984375,889.840210 
	C910.513123,889.840210 527.538879,889.840393 144.564697,889.835754 
	C142.566406,889.835754 140.531555,889.996887 138.577545,889.684265 
	C134.705444,889.064758 132.221039,886.897888 132.045609,882.720215 
	C131.975739,881.056335 132.001190,879.388062 132.001175,877.721741 
	C131.999527,741.564209 132.053070,605.406677 131.916840,469.249329 
	C131.903259,455.665436 136.471100,445.119446 146.967941,436.126740 
	C232.504807,362.847015 317.780396,289.262360 403.200958,215.846756 
	C414.858459,205.827621 427.434570,197.093948 441.712616,191.085373 
	C468.306732,179.893921 493.708282,183.225113 516.445374,199.984299 
	C536.661560,214.885300 555.719971,231.415695 574.770508,247.829086 
	C647.106934,310.151978 719.175964,372.785339 791.498230,435.124725 
	C802.521545,444.626526 807.654907,456.050140 807.637512,470.518768 
	C807.509277,577.344727 807.568176,684.170959 807.568298,790.997070 
	C807.568298,792.330322 807.539856,793.664368 807.574951,794.996704 
	C807.758057,801.948242 809.552612,803.818665 816.660950,803.821533 
	C894.489075,803.853333 972.317139,803.853699 1050.145264,803.820618 
	C1057.180908,803.817627 1059.147949,801.678589 1059.149780,794.360413 
	C1059.165771,730.031433 1059.165649,665.702393 1059.146973,601.373413 
	C1059.144653,593.411072 1057.688354,592.490356 1050.417480,596.502869 
	C1028.437012,608.632935 1005.339111,617.945312 981.088196,624.379150 
	C954.728027,631.372559 927.907593,635.022705 900.618530,634.962524 
	C893.338196,634.946472 890.777222,632.861328 890.682617,625.492737 
	C890.395935,603.166931 890.408691,580.834717 890.580017,558.507080 
	C890.628296,552.214661 892.841858,550.968628 900.000610,550.286011 
	C916.875488,548.677002 933.918518,547.850220 950.540039,544.788025 
	C977.945435,539.739014 1003.062683,528.940002 1024.266968,510.212372 
	C1047.220703,489.939606 1058.867432,464.286407 1060.703247,433.938934 
	C1061.585693,419.352600 1059.612427,405.028198 1056.650513,390.804749 
	C1055.545898,385.499481 1053.927734,384.944611 1049.093506,387.802155 
	C1033.917725,396.772705 1019.154663,406.580109 1003.416321,414.428223 
	C979.837463,426.186096 954.421997,432.356598 928.198364,434.932983 
	C920.083252,435.730255 911.926880,436.110870 903.788208,436.665039 
	C894.799927,437.277100 891.863037,434.625580 891.850952,425.765808 
	C891.824341,406.267151 891.813416,386.768372 891.854126,367.269775 
	C891.876709,356.437134 893.909851,354.269592 904.694458,353.054932 
	C931.211060,350.068268 956.768982,343.731018 980.433655,330.996399 
	C1009.629211,315.285400 1030.998535,292.305298 1044.081909,261.779083 
	C1054.103882,238.396057 1058.843628,213.833969 1060.091675,188.518372 
	C1060.206299,186.190857 1060.450684,183.868256 1060.683960,181.548325 
	C1061.576660,172.673538 1063.427368,170.879181 1072.173218,170.858521 
	C1092.671753,170.810104 1113.170532,170.812836 1133.669067,170.859848 
	C1142.286377,170.879608 1144.608887,173.167801 1145.041260,181.754700 
	C1146.420532,209.158493 1150.108154,236.104889 1160.796265,261.673676 
	C1173.674316,292.481140 1194.552612,315.980133 1224.257324,331.541443 
	C1247.918091,343.936493 1273.265869,350.233673 1299.646606,353.030121 
	C1302.265747,353.307800 1304.894531,353.921539 1307.400879,354.740265 
	C1311.658813,356.131165 1313.921265,359.218933 1313.929688,363.751312 
	C1313.968872,384.915985 1314.054443,406.081177 1313.942017,427.245209 
	C1313.910156,433.229218 1309.600830,436.873993 1303.419800,436.741211 
	C1259.654907,435.801086 1218.484131,425.207672 1180.370361,403.441132 
	C1172.423218,398.902679 1164.749634,393.887878 1156.902588,389.171173 
	C1152.289795,386.398407 1149.947632,387.046295 1148.802246,392.082489 
	C1140.310303,429.420074 1142.045044,465.321259 1165.350586,497.585999 
	C1181.728638,520.260193 1204.949707,533.336670 1230.955811,541.790466 
	C1253.941772,549.262390 1277.692627,552.133667 1301.840942,552.001282 
	C1312.402588,551.943359 1313.996826,553.673828 1313.998779,564.211731 
	C1314.002686,584.710327 1314.018555,605.208984 1313.992188,625.707581 
	C1313.979248,635.812866 1311.693237,637.862976 1301.533569,637.773621 
	C1250.609253,637.325623 1202.654175,625.390686 1157.928711,600.856567 
	C1156.177856,599.896118 1154.435303,598.899841 1152.610840,598.098206 
	C1148.870239,596.454590 1145.596558,598.350037 1145.072632,602.444641 
	C1144.904541,603.758057 1145.002075,605.107300 1145.002075,606.440186 
	C1144.999756,669.602600 1144.998657,732.765015 1145.001465,795.927429 
	C1145.001831,804.863892 1146.932983,806.835632 1155.794067,806.837402 
	C1204.457397,806.847290 1253.120850,806.840027 1301.784180,806.843689 
	C1312.442383,806.844482 1313.996704,808.380859 1313.998779,818.882629 
	C1314.002686,838.881287 1314.014282,858.879883 1313.993408,878.878540 
	C1313.984375,887.426575 1311.619629,889.751526 1302.972168,889.835754 
	C1300.142212,889.863342 1297.311646,889.840210 1293.984375,889.840210 
M470.347229,272.912781 
	C467.037445,274.191559 463.057526,274.687225 460.515106,276.862793 
	C382.520905,343.603729 304.726166,410.577850 226.683228,477.261505 
	C220.346054,482.676270 217.857803,488.373962 217.874069,496.552765 
	C218.068970,594.550415 217.999847,692.548584 218.000214,790.546631 
	C218.000259,801.266235 220.404282,803.800720 231.231903,803.819824 
	C265.397766,803.880188 299.563843,803.865173 333.729767,803.826111 
	C342.242371,803.816345 344.348083,801.671387 344.563507,793.252625 
	C344.597626,791.920166 344.569946,790.586182 344.569946,789.252869 
	C344.570038,732.753967 344.565155,676.255127 344.575409,619.756226 
	C344.576874,611.590881 344.345551,603.410461 344.748199,595.263000 
	C345.960999,570.722961 365.186340,552.115173 389.673981,552.048279 
	C443.505829,551.901184 497.339539,551.832520 551.169128,552.208679 
	C558.095215,552.257080 565.598938,553.912720 571.802002,556.940430 
	C588.658142,565.167847 596.248535,579.449524 596.209229,598.228577 
	C596.074097,662.726990 596.154236,727.225830 596.160767,791.724548 
	C596.161804,801.704834 598.260986,803.833801 608.143799,803.837402 
	C642.976440,803.850281 677.809021,803.850098 712.641663,803.837280 
	C721.093018,803.834167 722.995544,801.952759 722.996033,793.628418 
	C723.002197,693.630432 722.971436,593.632446 723.062317,493.634491 
	C723.068542,486.770874 720.734985,481.733551 715.400696,477.252869 
	C681.726685,448.967133 648.243896,420.453583 614.720764,391.988373 
	C569.505920,353.595490 524.331604,315.154785 479.047272,276.844177 
	C476.883057,275.013214 473.824036,274.239960 470.347229,272.912781 
M512.002136,727.500000 
	C512.002136,700.504211 512.012573,673.508423 511.995880,646.512634 
	C511.990784,638.289551 508.701508,635.010986 500.464905,635.003723 
	C480.134766,634.985840 459.804596,634.989380 439.474457,635.001709 
	C430.530975,635.007141 427.437744,638.059509 427.434204,647.023926 
	C427.415070,695.349731 427.414795,743.675476 427.434631,792.001282 
	C427.438202,800.760864 430.480194,803.828125 439.098267,803.838135 
	C459.595032,803.862000 480.091888,803.862244 500.588654,803.837891 
	C509.239685,803.827637 511.988708,801.083740 511.996124,792.489990 
	C512.014465,771.159973 512.002136,749.830017 512.002136,727.500000 
z"/>
<path fill="#38757E" opacity="1.000000" stroke="none" 
	d="
M580.671021,1028.704590 
	C593.797424,1019.522156 606.580872,1010.479370 619.443237,1001.550415 
	C645.221436,983.655212 674.134521,974.485596 705.059204,970.960510 
	C749.942993,965.844177 790.465942,977.943665 827.888062,1002.147705 
	C844.251892,1012.731689 860.372559,1023.696960 876.850159,1034.098633 
	C898.340210,1047.664551 921.624756,1050.424194 945.242065,1041.601318 
	C957.553833,1037.001953 968.971741,1029.676392 980.234375,1022.681885 
	C996.204529,1012.763977 1010.789185,1000.275330 1027.487671,991.930054 
	C1091.919800,959.729187 1155.925049,958.901550 1217.731567,999.146057 
	C1230.210938,1007.271912 1241.311157,1017.555908 1252.821289,1027.116943 
	C1261.691406,1034.484985 1271.665894,1039.675171 1282.565674,1043.032104 
	C1290.663940,1045.526245 1298.929077,1047.523560 1307.196777,1049.404907 
	C1312.022217,1050.503052 1314.145142,1052.835815 1314.085449,1057.996582 
	C1313.869385,1076.660522 1314.038452,1095.328369 1313.987549,1113.994629 
	C1313.949951,1127.777466 1306.708740,1133.513794 1293.174927,1131.249023 
	C1256.545898,1125.119263 1223.283691,1111.186401 1193.207886,1089.368774 
	C1178.506836,1078.704224 1163.186890,1069.032104 1146.333984,1061.890137 
	C1120.791260,1051.065796 1096.224731,1053.010498 1072.718750,1067.188721 
	C1062.330933,1073.454346 1052.529541,1080.715332 1042.622437,1087.750610 
	C1016.104858,1106.581665 987.456726,1120.729980 955.335999,1126.892456 
	C924.783203,1132.753906 894.668640,1130.325684 865.147705,1120.588257 
	C836.179749,1111.032959 810.466675,1095.586792 786.235046,1077.318115 
	C778.420410,1071.426514 770.234802,1065.789185 761.552612,1061.333984 
	C741.485596,1051.036987 720.438721,1051.174194 700.198608,1060.092651 
	C683.964355,1067.245850 668.377258,1076.056274 653.088501,1085.119019 
	C634.189575,1096.321777 616.066284,1108.790039 595.405396,1116.836060 
	C551.967468,1133.752075 508.484161,1134.236938 464.633301,1118.412964 
	C435.094116,1107.753418 409.385712,1090.699341 384.649475,1071.872925 
	C369.547699,1060.379272 352.809174,1052.871460 333.531281,1053.311279 
	C316.695526,1053.695312 301.159393,1059.485962 286.819702,1067.952515 
	C268.756653,1078.617432 251.061630,1089.908203 233.255722,1101.005737 
	C205.612152,1118.234619 175.276459,1127.511230 143.185364,1131.594604 
	C137.029129,1132.377930 132.066101,1128.034424 132.037994,1121.743774 
	C131.944153,1100.744507 131.950104,1079.744507 132.044830,1058.745239 
	C132.072418,1052.630005 134.658295,1048.795898 140.531326,1047.319946 
	C168.065826,1040.399780 191.582260,1025.669312 214.450134,1009.681152 
	C236.900482,993.984802 260.802063,981.847290 287.839905,975.798035 
	C343.129547,963.428101 393.077515,974.909302 438.885956,1007.412354 
	C453.272491,1017.620239 467.623993,1028.051147 482.902527,1036.786743 
	C504.790588,1049.301392 528.552490,1051.074341 552.367859,1042.966064 
	C562.161438,1039.631714 571.058777,1033.665039 580.671021,1028.704590 
z"/>
<path fill="#38757E" opacity="1.000000" stroke="none" 
	d="
M994.054810,1236.064941 
	C1015.841370,1220.570068 1038.177368,1206.757812 1062.617554,1196.583374 
	C1102.534546,1179.965942 1142.246582,1180.490479 1181.926392,1197.554443 
	C1203.500977,1206.832397 1223.283813,1219.139160 1241.910889,1233.209473 
	C1260.797241,1247.475708 1281.188965,1257.408203 1304.993408,1259.829590 
	C1311.747314,1260.516724 1313.936157,1263.344971 1313.963135,1270.088135 
	C1314.052612,1292.419067 1314.044922,1314.750610 1313.970459,1337.081665 
	C1313.949829,1343.258423 1309.599365,1347.482422 1303.871948,1346.825684 
	C1282.813110,1344.411011 1262.148804,1340.412842 1242.428467,1332.188232 
	C1219.722046,1322.718018 1199.316284,1309.748779 1181.610840,1292.721191 
	C1175.253540,1286.607300 1168.484009,1282.016724 1159.913452,1279.377563 
	C1137.766113,1272.558105 1115.567871,1268.559204 1092.668457,1275.089478 
	C1077.826294,1279.321899 1065.302612,1287.823364 1053.135132,1296.976440 
	C1041.557983,1305.685425 1030.100586,1314.591675 1018.118958,1322.715576 
	C1001.230835,1334.166382 981.763611,1338.948853 962.018188,1342.533813 
	C922.870239,1349.641357 884.408569,1347.377319 847.059814,1333.028931 
	C828.790283,1326.010376 813.758179,1313.627808 798.175781,1302.226196 
	C783.344604,1291.374268 768.177002,1281.119385 750.281433,1275.858398 
	C720.961731,1267.238525 693.913940,1272.781494 668.913391,1289.516602 
	C654.937744,1298.871704 641.455139,1308.961426 627.518677,1318.377197 
	C601.084839,1336.236450 571.400635,1344.866089 539.991272,1348.015625 
	C491.720612,1352.855957 449.365295,1338.012207 411.516602,1308.669556 
	C397.947083,1298.149658 384.300751,1287.796631 368.641174,1280.414551 
	C338.541992,1266.225464 309.709839,1269.675049 282.091492,1286.825806 
	C271.355377,1293.492920 261.339447,1301.310303 250.876297,1308.428711 
	C219.687180,1329.647583 185.099258,1342.462280 148.259323,1349.631714 
	C140.537170,1351.134521 133.758316,1346.495850 133.647324,1338.626953 
	C133.346558,1317.305664 133.580383,1295.976318 133.660095,1274.650513 
	C133.681793,1268.845703 136.834061,1265.347046 142.321686,1263.958008 
	C167.134460,1257.677246 188.538467,1244.577026 209.581818,1230.658447 
	C225.398148,1220.197144 240.697998,1208.731079 258.677490,1202.048218 
	C327.547058,1176.449463 391.661072,1184.252075 450.497253,1229.463745 
	C460.639557,1237.257446 470.805634,1245.340210 481.985870,1251.397339 
	C506.209564,1264.521118 532.026794,1264.131104 556.933411,1254.260010 
	C578.221497,1245.823242 598.631165,1235.057861 619.068909,1224.616821 
	C643.096008,1212.342041 666.746216,1199.413330 693.164307,1192.647705 
	C728.682922,1183.551392 762.776672,1187.405762 795.804688,1202.888062 
	C814.191284,1211.507080 830.441284,1223.409912 846.573792,1235.508911 
	C864.184448,1248.716431 883.531067,1258.047607 905.476562,1261.106079 
	C929.003357,1264.384888 951.238098,1259.567993 972.222839,1248.875000 
	C979.621460,1245.104980 986.590698,1240.492310 994.054810,1236.064941 
z"/>
<path fill="#37757E" opacity="1.000000" stroke="none" 
	d="
M748.604858,44.611877 
	C787.910767,25.149384 826.986816,24.975069 865.838318,44.475677 
	C913.663818,68.480576 941.043640,123.735947 932.371399,176.449875 
	C927.238037,207.653275 912.912720,233.584198 888.935486,253.713028 
	C863.635132,274.952576 833.928528,284.748352 800.813538,282.926697 
	C766.833801,281.057434 737.971619,267.818726 714.685059,242.782425 
	C689.373108,215.568405 678.557922,183.072830 681.350403,146.427856 
	C683.861450,113.477058 697.695251,85.378967 722.566162,63.360153 
	C730.444946,56.384850 739.662598,50.921730 748.604858,44.611877 
M786.478943,190.156891 
	C804.582153,199.688599 824.799988,196.696320 837.781433,183.232025 
	C853.200623,167.239395 849.325745,141.825577 838.525024,128.905228 
	C822.950989,110.274574 791.379211,109.895622 776.358887,128.989975 
	C760.503723,149.145706 764.494080,174.669022 786.478943,190.156891 
z"/>
<path fill="#FFFFFF" opacity="1.000000" stroke="none" 
	d="
M470.764465,272.943481 
	C473.824036,274.239960 476.883057,275.013214 479.047272,276.844177 
	C524.331604,315.154785 569.505920,353.595490 614.720764,391.988373 
	C648.243896,420.453583 681.726685,448.967133 715.400696,477.252869 
	C720.734985,481.733551 723.068542,486.770874 723.062317,493.634491 
	C722.971436,593.632446 723.002197,693.630432 722.996033,793.628418 
	C722.995544,801.952759 721.093018,803.834167 712.641663,803.837280 
	C677.809021,803.850098 642.976440,803.850281 608.143799,803.837402 
	C598.260986,803.833801 596.161804,801.704834 596.160767,791.724548 
	C596.154236,727.225830 596.074097,662.726990 596.209229,598.228577 
	C596.248535,579.449524 588.658142,565.167847 571.802002,556.940430 
	C565.598938,553.912720 558.095215,552.257080 551.169128,552.208679 
	C497.339539,551.832520 443.505829,551.901184 389.673981,552.048279 
	C365.186340,552.115173 345.960999,570.722961 344.748199,595.263000 
	C344.345551,603.410461 344.576874,611.590881 344.575409,619.756226 
	C344.565155,676.255127 344.570038,732.753967 344.569946,789.252869 
	C344.569946,790.586182 344.597626,791.920166 344.563507,793.252625 
	C344.348083,801.671387 342.242371,803.816345 333.729767,803.826111 
	C299.563843,803.865173 265.397766,803.880188 231.231903,803.819824 
	C220.404282,803.800720 218.000259,801.266235 218.000214,790.546631 
	C217.999847,692.548584 218.068970,594.550415 217.874069,496.552765 
	C217.857803,488.373962 220.346054,482.676270 226.683228,477.261505 
	C304.726166,410.577850 382.520905,343.603729 460.515106,276.862793 
	C463.057526,274.687225 467.037445,274.191559 470.764465,272.943481 
z"/>
<path fill="#FEFEFE" opacity="1.000000" stroke="none" 
	d="
M512.002136,728.000000 
	C512.002136,749.830017 512.014465,771.159973 511.996124,792.489990 
	C511.988708,801.083740 509.239685,803.827637 500.588654,803.837891 
	C480.091888,803.862244 459.595032,803.862000 439.098267,803.838135 
	C430.480194,803.828125 427.438202,800.760864 427.434631,792.001282 
	C427.414795,743.675476 427.415070,695.349731 427.434204,647.023926 
	C427.437744,638.059509 430.530975,635.007141 439.474457,635.001709 
	C459.804596,634.989380 480.134766,634.985840 500.464905,635.003723 
	C508.701508,635.010986 511.990784,638.289551 511.995880,646.512634 
	C512.012573,673.508423 512.002136,700.504211 512.002136,728.000000 
z"/>
<path fill="#FFFFFF" opacity="1.000000" stroke="none" 
	d="
M786.169556,189.959839 
	C764.494080,174.669022 760.503723,149.145706 776.358887,128.989975 
	C791.379211,109.895622 822.950989,110.274574 838.525024,128.905228 
	C849.325745,141.825577 853.200623,167.239395 837.781433,183.232025 
	C824.799988,196.696320 804.582153,199.688599 786.169556,189.959839 
z"/>
</svg>